<?xml version="1.0" standalone="no"?><!-- Generator: Gravit.io --><svg xmlns="http://www.w3.org/2000/svg" xmlns:xlink="http://www.w3.org/1999/xlink" style="isolation:isolate" viewBox="0 0 120 70" width="120" height="70"><defs><clipPath id="_clipPath_mwob7ilch3j9zF44X9krzjJqJk0Tvnru"><rect width="120" height="70"/></clipPath></defs><g clip-path="url(#_clipPath_mwob7ilch3j9zF44X9krzjJqJk0Tvnru)"><rect width="120" height="70" style="fill:rgb(9,81,105)"/><g><g><g transform="matrix(2.888,-0.306,-0.107,3.324,11.433,2.028)"><text transform="matrix(1,0,0,1,0,18.06)" style="font-family:'Bungee';font-weight:400;font-size:21px;font-style:normal;letter-spacing:-3.5;fill:#9fd96b;stroke:none;">Ess</text></g><rect x="36.309" y="44.147" width="0.989" height="16.763" transform="matrix(0.922,0.386,-0.47,0.887,27.546,-8.289)" fill="rgb(9,81,105)"/><rect x="40.212" y="42.066" width="0.989" height="19.676" transform="matrix(0.922,0.386,-0.47,0.887,27.555,-9.866)" fill="rgb(9,81,105)"/><rect x="73.764" y="37.327" width="0.989" height="19.676" transform="matrix(0.922,0.386,-0.47,0.887,27.928,-23.354)" fill="rgb(9,81,105)"/><rect x="36.552" y="44.07" width="1.8" height="17.08" transform="matrix(0.922,0.386,-0.47,0.887,27.634,-8.53)" fill="rgb(9,81,105)"/></g><g transform="matrix(1.098,-0.115,0.013,0.633,13.75,61.046)"><text transform="matrix(1,0,0,1,0,8.872)" style="font-family:'Biryani';font-weight:400;font-size:6px;font-style:normal;letter-spacing:2;fill:#9fd96b;stroke:none;">earth-saver stats</text></g></g></g></svg>